<svg fill="none" height="156" viewBox="0 0 156 156" width="156" xmlns="http://www.w3.org/2000/svg">
    <path
        d="M101.855 104.042C101.18 106.073 99.2873 107.449 97.1471 107.465L58.9343 107.748C56.7966 107.764 54.8853 106.419 54.1784 104.402L42.2566 70.3779C41.5164 68.2655 42.2703 65.9185 44.1022 64.6324L75.6846 42.4583C77.4284 41.2339 79.7565 41.2492 81.4841 42.4962L111.433 64.1143C113.204 65.3926 113.94 67.6725 113.251 69.7451L101.855 104.042Z"
        fill="#FDFDFD" />
    <path
        d="M120.769 60.0319C119.256 60.5122 117.604 60.2449 116.319 59.3117L84.0773 35.8957C82.7925 34.9626 82.0273 33.4748 82.0156 31.887L81.839 7.98095C81.8143 4.64127 85.008 2.21669 88.2182 3.13803L124.702 13.6092C125.765 13.9142 126.697 14.5631 127.352 15.4541L148.545 44.2899C150.572 47.0479 149.291 50.9815 146.028 52.0167L120.769 60.0319Z"
        fill="#FDFDFD" />
    <path
        d="M47.185 111.626C48.2002 110.319 48.5033 108.595 47.9947 107.021L36.1866 70.4713C35.6791 68.9006 34.4291 67.6815 32.8461 67.2136L6.4174 59.4011C3.21356 58.454 0 60.8551 0 64.1959V99.9924C0 101.092 0.362499 102.161 1.03138 103.034L23.322 132.12C25.3149 134.721 29.2285 134.734 31.2388 132.147L47.185 111.626Z"
        fill="#FDFDFD" />
    <path
        d="M38.5031 59.1252C37.2915 59.9442 35.7821 60.1917 34.3724 59.8025L9.64318 52.9753C6.27019 52.0441 4.87238 48.0253 6.93949 45.2019L29.1893 14.812C29.8377 13.9265 30.7594 13.2788 31.8123 12.969L67.5875 2.44252C70.813 1.49346 74.0371 3.93451 73.9985 7.29648L73.7071 32.7302C73.6883 34.3702 72.8663 35.8968 71.5075 36.8153L38.5031 59.1252Z"
        fill="#FDFDFD" />
    <path
        d="M132.91 132.027C130.94 134.666 127.001 134.713 124.969 132.121L109.105 111.892C108.075 110.579 107.768 108.838 108.287 107.252L120.47 70.0067C120.982 68.4411 122.232 67.2281 123.813 66.7638L148.944 59.381C152.14 58.4421 155.344 60.8322 155.354 64.1633L155.462 100.146C155.465 101.229 155.116 102.284 154.468 103.152L132.91 132.027Z"
        fill="#FDFDFD" />
    <path
        d="M102.968 115.927C102.025 114.692 100.561 113.966 99.0075 113.962L56.5286 113.848C54.9356 113.844 53.436 114.599 52.4907 115.881L37.742 135.886C35.723 138.625 36.9694 142.536 40.2006 143.602L76.2344 155.484C77.2512 155.819 78.3487 155.819 79.3655 155.484L115.68 143.514C118.945 142.437 120.175 138.463 118.089 135.731L102.968 115.927Z"
        fill="#FDFDFD" />
</svg>
