<svg fill="none" height="173" viewBox="0 0 144 173" width="144" xmlns="http://www.w3.org/2000/svg">
    <path
        d="M140.962 116.765C141.743 118.104 140.77 119.785 139.219 119.773L6.60476 118.76C5.06355 118.748 4.11429 117.071 4.89757 115.744L71.2681 3.26827C72.0441 1.9532 73.9481 1.95772 74.7179 3.27646L140.962 116.765Z"
        fill="#FDFDFD" />
    <path
        d="M5.19323 105.228C4.18415 107.003 1.4763 106.303 1.45458 104.261L0.877794 50.043C0.870842 49.3894 1.18364 48.7737 1.71554 48.394L54.5489 10.6723C56.2929 9.42718 58.5087 11.4253 57.4498 13.2883L5.19323 105.228Z"
        fill="#FDFDFD" />
    <path
        d="M71.8301 171.671C72.5294 172.166 73.467 172.161 74.1609 171.658L133.509 128.619C135.079 127.481 134.274 125 132.335 125H12.2791C10.3298 125 9.53222 127.504 11.1224 128.632L71.8301 171.671Z"
        fill="#FDFDFD" />
    <path
        d="M142.655 46.9023C143.185 47.2771 143.5 47.8859 143.5 48.5351V101.158C143.5 103.196 140.81 103.929 139.776 102.173L86.7217 12.023C85.6289 10.1661 87.8412 8.1316 89.6003 9.37581L142.655 46.9023Z"
        fill="#FDFDFD" />
</svg>
