<svg fill="none" height="188" viewBox="0 0 189 188" width="189" xmlns="http://www.w3.org/2000/svg">
    <path
        d="M91.8896 185.246C91.8807 186.108 90.8584 186.555 90.2191 185.977L1.39473 105.674C0.82896 105.162 1.02108 104.231 1.7431 103.985L43.6384 89.7231C43.8712 89.6438 44.1251 89.6531 44.3515 89.7493L92.0506 110.005C92.4234 110.163 92.6639 110.531 92.6597 110.936L91.8896 185.246Z"
        fill="#FDFDFD" />
    <path
        d="M187.222 104.227C187.935 104.486 188.111 105.411 187.545 105.914L97.6912 185.698C97.0419 186.275 96.0168 185.807 96.0273 184.938L96.9258 110.623C96.9304 110.242 97.1518 109.896 97.4964 109.732L142.556 88.3129C142.797 88.198 143.075 88.1848 143.326 88.2761L187.222 104.227Z"
        fill="#FDFDFD" />
    <path
        d="M43.784 85.2648C43.6655 85.4806 43.4715 85.6452 43.2392 85.7269L3.74733 99.6155C2.76691 99.9603 1.97638 98.7662 2.67668 97.9983L82.7474 10.1982C83.5451 9.32351 84.9326 10.3156 84.3629 11.3533L43.784 85.2648Z"
        fill="#FDFDFD" />
    <path
        d="M94.404 106.615C94.1468 106.733 93.8517 106.736 93.5919 106.624L47.9413 86.9673C47.4004 86.7344 47.1769 86.0868 47.459 85.5699L93.1194 1.88061C93.499 1.18483 94.4986 1.18615 94.8764 1.88292L139.757 84.6597C140.033 85.1684 139.82 85.8044 139.294 86.0455L94.404 106.615Z"
        fill="#FDFDFD" />
    <path
        d="M182.554 98.2883C183.528 98.609 184.296 97.4301 183.609 96.6686L106.588 11.3048C105.799 10.4303 104.411 11.4013 104.962 12.4424L143.411 85.1104C143.532 85.3389 143.737 85.5117 143.983 85.5926L182.554 98.2883Z"
        fill="#FDFDFD" />
</svg>
