<svg fill="none" height="148" viewBox="0 0 155 148" width="155" xmlns="http://www.w3.org/2000/svg">
    <path
        d="M60.5494 134.633C60.5412 141.147 54.407 145.914 48.0928 144.314L9.55341 134.547C5.17451 133.437 2.08332 129.53 2.01127 125.013L0.612655 37.3303C0.506336 30.6649 6.82826 25.7635 13.257 27.5271L53.3028 38.5132C57.6507 39.7059 60.6628 43.6607 60.6572 48.1693L60.5494 134.633Z"
        fill="#FDFDFD" />
    <path
        d="M145.706 15.9083C147.769 16.4444 147.674 19.4044 145.582 19.8078L62.0615 35.911C61.7579 35.9695 61.445 35.9569 61.1471 35.8741L9.62869 21.5506C7.63643 20.9967 7.69203 18.1529 9.70443 17.6773L84.0171 0.114127C84.3342 0.0391794 84.6649 0.042849 84.9802 0.124819L145.706 15.9083Z"
        fill="#FDFDFD" />
    <path
        d="M154.267 118.863C154.267 123.511 151.064 127.547 146.537 128.602L77.699 144.647C71.482 146.096 65.5173 141.428 65.43 135.044L64.2472 48.5934C64.1812 43.7691 67.5692 39.5856 72.3019 38.6475L142.322 24.7677C148.505 23.542 154.267 28.2733 154.267 34.5768V118.863Z"
        fill="#FDFDFD" />
</svg>
