<svg width="76" height="100" viewBox="0 0 76 100" fill="none" xmlns="http://www.w3.org/2000/svg">
<g filter="url(#filter0_d_409_845)">
<path d="M42.9126 56.7028V75.0209L62.8959 98.3346H69.557V83.3471L47.9084 61.6986L42.9126 56.7028Z" fill="#FFE100"/>
<path d="M62.896 18.5679C61.7304 17.0692 60.2316 15.7369 58.8993 14.4048L37.9168 1.74854L17.1008 14.5712C15.602 15.7369 14.2698 17.0692 12.9377 18.5679C8.60787 24.0633 6.27661 30.7244 6.27661 37.8852V98.3348H37.9168H69.557V37.8852C69.557 30.8908 67.2256 24.0633 62.896 18.5679Z" fill="#FFE100"/>
<path d="M67.2255 25.895L66.2263 26.7277L47.9082 41.7152V46.7111H42.9124V56.7027L47.9082 61.6986L69.5567 43.3804V37.885C69.5569 33.7219 68.7242 29.7252 67.2255 25.895Z" fill="#FFE100"/>
<path d="M69.557 83.347V43.3804L47.9084 61.6985L69.557 83.347Z" fill="#FFE100"/>
<path d="M67.2255 26.0616C66.0599 23.3973 64.7276 20.8993 62.8957 18.5679C61.7301 17.0691 60.2314 15.7368 58.8991 14.4048L56.2347 12.906V13.4056L43.0791 30.0583L42.9126 38.3848H47.9084V41.7154L67.2255 26.0616Z" fill="#FFE100"/>
<path d="M37.9167 25.0625H42.9126L43.079 30.0583L56.4013 13.0725L37.9167 1.74854V3.41375V25.0625Z" fill="#FFE100"/>
<path d="M62.8958 18.5679C61.7302 17.0692 60.2314 15.7369 58.8991 14.4048L37.9166 1.74854L35.4187 3.24729L53.7368 14.5712C55.2356 15.9035 56.5679 17.0692 57.7335 18.7344C62.0633 24.2298 64.3945 30.8908 64.3945 38.0517V98.3348H69.3904V37.8852C69.5568 30.8908 67.2254 24.0633 62.8958 18.5679Z" fill="#FFA800"/>
<path d="M8.60782 25.8951L9.60699 26.7278L27.9251 41.7153V46.7112H32.9209V56.7028L27.9251 61.6987L6.27637 43.3806V37.8851C6.27637 33.722 7.10907 29.7253 8.60782 25.8951Z" fill="#FFE100"/>
<path d="M6.27637 83.3472V43.3805L27.9251 61.6986L6.27637 83.3472Z" fill="#FFE100"/>
<path d="M32.9209 56.7028V75.0209L12.9376 98.3346H6.27637V83.3471L27.9251 61.6986L32.9209 56.7028Z" fill="#FFE100"/>
<path d="M8.60791 26.0618C9.77354 23.3974 11.1058 20.8995 12.9377 18.568C14.1033 17.0693 15.6021 15.737 16.9344 14.4049L19.5987 12.9061V13.4057L32.921 30.0584V38.3849H27.9252V41.7155L8.60791 26.0618Z" fill="#FFE100"/>
<path d="M12.9377 18.5679C14.1033 17.0692 15.602 15.7369 16.9343 14.4048L37.9168 1.74854L40.4147 3.24729L22.0966 14.5712C20.5979 15.7369 19.2656 17.0692 17.9335 18.5679C13.6037 24.0633 11.2724 30.7244 11.2724 37.8852V98.3348H6.27661V37.8852C6.27642 30.8908 8.60787 24.0633 12.9377 18.5679Z" fill="white"/>
<path d="M37.9167 25.0625H32.9209L32.7542 30.0583L19.4321 13.0725L37.9167 1.74854V3.41375V25.0625Z" fill="#FFE100"/>
<path d="M32.9209 38.3846H42.9126V25.0625H32.9209V38.3846Z" fill="#63D3FD"/>
<path d="M27.925 46.7111H47.9084V38.3846H27.925V46.7111Z" fill="#63D3FD"/>
<path d="M42.9126 75.0208L37.9167 83.3471L32.9209 75.0208V46.7111H42.9126V75.0208Z" fill="#63D3FD"/>
<path d="M69.5569 100H6.2763C5.27713 100 4.61108 99.334 4.61108 98.3348V37.8853C4.61108 30.558 7.109 23.3973 11.7717 17.5688C12.9375 16.2365 14.2696 14.7378 16.1015 13.239L16.268 13.0725L37.084 0.24984C37.5836 -0.0832801 38.2496 -0.0832801 38.7492 0.24984L59.5653 13.0725L59.7317 13.239C61.5636 14.7378 62.8957 16.07 64.0615 17.5688C68.7242 23.3973 71.2221 30.558 71.2221 37.8853V98.3348C71.2221 99.3338 70.5561 100 69.5569 100ZM7.9417 96.6694H67.8917V37.8851C67.8917 31.224 65.5602 24.8959 61.5636 19.7336C60.5644 18.568 59.3988 17.4021 57.9 15.9034L37.9167 3.74692L18.0998 15.9034C16.4346 17.2357 15.2688 18.4013 14.4363 19.7336C10.2732 24.7294 7.9417 31.224 7.9417 37.8851V96.6694Z" fill="black"/>
<path d="M37.9167 100C36.9175 100 36.2515 99.334 36.2515 98.3348V81.6819C36.2515 80.6828 36.9175 80.0167 37.9167 80.0167C38.9158 80.0167 39.5819 80.6828 39.5819 81.6819V98.3347C39.5819 99.3338 38.9158 100 37.9167 100Z" fill="black"/>
<path d="M44.5777 40.0501H31.2554V23.3973H44.5777V40.0501ZM34.586 36.7194H41.247V26.7278H34.586V36.7194Z" fill="black"/>
<path d="M49.5735 48.3764H26.2595V36.7195H49.5735V48.3764ZM29.5901 45.0459H46.2429V40.0501H29.5901V45.0459Z" fill="black"/>
<path d="M37.9167 86.5113L31.2556 75.354V45.0459H44.5779V75.5205L37.9167 86.5113ZM34.586 74.5213L37.9167 80.0167L41.2473 74.5213V48.3763H34.586V74.5213Z" fill="black"/>
<path d="M47.9084 63.3638C47.4088 63.3638 47.0757 63.1974 46.7427 62.8642L41.7469 57.8684C41.4138 57.5353 41.2473 57.2024 41.2473 56.7028V46.7111C41.2473 45.7119 41.9134 45.0459 42.9125 45.0459H46.2431V41.7153C46.2431 41.2157 46.4096 40.7161 46.9092 40.383L66.0598 24.563C66.3929 24.2299 67.059 24.0634 67.5586 24.2299C68.0582 24.3963 68.5577 24.7294 68.7242 25.229C70.3894 29.2257 71.2221 33.5555 71.2221 37.7186V43.3805C71.2221 43.8801 71.0557 44.3796 70.5561 44.7128L48.9075 63.0309C48.7409 63.1974 48.2413 63.3638 47.9084 63.3638ZM44.5777 56.0367L48.0748 59.5338L67.8917 42.548V37.7186C67.8917 34.5546 67.3921 31.5571 66.3929 28.5596L49.5736 42.548V46.7111C49.5736 47.7103 48.9075 48.3763 47.9084 48.3763H44.5777V56.0367Z" fill="black"/>
<path d="M69.5569 85.0125C69.0573 85.0125 68.7242 84.846 68.3912 84.5129L46.7425 62.8642C46.4094 62.5311 46.2429 62.0315 46.2429 61.6985C46.2429 61.199 46.4094 60.8658 46.909 60.5329L68.5577 42.2148C69.0573 41.7152 69.7233 41.7152 70.3896 42.0483C71.0558 42.3815 71.3887 42.881 71.3887 43.5471V83.5138C71.3887 84.1798 71.0556 84.846 70.3896 85.0125C70.0565 85.0125 69.7233 85.0125 69.5569 85.0125ZM50.4062 61.865L67.8917 79.3504V47.0442L50.4062 61.865Z" fill="black"/>
<path d="M69.5569 100H62.8958C62.3962 100 61.8966 99.8336 61.5635 99.5005L41.5802 76.1865C41.4137 75.8534 41.2471 75.3538 41.2471 75.0209V56.7028C41.2471 56.0367 41.5802 55.3705 42.2462 55.204C42.9123 54.8709 43.5785 55.0376 44.0781 55.5372L70.7225 82.1815C71.0556 82.5147 71.2221 82.8476 71.2221 83.3472V98.3347C71.2221 99.3338 70.556 100 69.5569 100ZM63.7283 96.6695H67.8914V84.0134L44.5777 60.6995V74.3547L63.7283 96.6695Z" fill="black"/>
<path d="M47.9084 43.3805C47.7419 43.3805 47.4088 43.3805 47.2423 43.2141C46.5763 42.8809 46.2431 42.3814 46.2431 41.7153V40.0501H42.9125C42.4129 40.0501 42.0798 39.8836 41.7469 39.5505C41.4138 39.2174 41.2473 38.8845 41.2473 38.3849L41.4138 30.0584C41.4138 29.7253 41.5802 29.3924 41.7469 29.0593L54.5694 12.7395C54.5694 12.2399 54.9025 11.7403 55.4021 11.4072C55.9017 11.0741 56.5677 11.0741 57.0673 11.4072L59.5652 12.9059L59.7317 13.0724C61.5636 14.5712 62.8957 15.9034 64.0615 17.4022C65.8934 19.7336 67.5586 22.398 68.7242 25.2291C69.0573 25.8951 68.7242 26.7278 68.2246 27.2274L48.9073 42.8809C48.5744 43.2141 48.2413 43.3805 47.9084 43.3805ZM44.5777 36.7195H47.9084C48.7411 36.7195 49.4071 37.3855 49.5736 38.2182L65.2271 25.5622C64.228 23.3974 63.0623 21.3991 61.5636 19.5672C60.5644 18.4016 59.3988 17.2357 57.9 15.737L56.9009 15.2374L44.7444 30.558L44.5777 36.7195Z" fill="black"/>
<path d="M43.079 31.7236C42.9125 31.7236 42.7459 31.7236 42.5794 31.5571C41.9133 31.3907 41.4138 30.7244 41.4138 30.0584L41.2473 26.7278H37.9167C36.9175 26.7278 36.2515 26.0617 36.2515 25.0625V1.74859C36.2515 1.08254 36.5846 0.582961 37.0842 0.24984C37.5838 -0.0832801 38.2498 -0.0832801 38.7494 0.24984L57.4004 11.7403C57.7336 11.9067 58.0665 12.4063 58.2331 12.9059C58.3996 13.4055 58.2331 13.9051 57.9 14.2382L44.4113 31.224C44.0781 31.5571 43.5786 31.7236 43.079 31.7236ZM39.5819 23.3971H42.9125C43.7452 23.3971 44.5777 24.0632 44.5777 25.0623V25.5619L53.9033 13.7386L39.5819 4.74609V23.3971Z" fill="black"/>
<path d="M27.925 63.3639C27.5919 63.3639 27.0923 63.1974 26.9259 63.0307L5.27713 44.7128C4.77755 44.3797 4.61108 43.8801 4.61108 43.3805V37.8851C4.61108 33.5553 5.44379 29.3922 7.109 25.3955C7.27546 24.8959 7.77505 24.5628 8.27463 24.3964C8.77421 24.2299 9.2738 24.3964 9.77338 24.7295L10.7725 25.5622L29.0907 40.5497C29.4238 40.8828 29.7567 41.3824 29.7567 41.882V45.2126H33.0873C34.0865 45.2126 34.7525 45.8786 34.7525 46.8778V56.8695C34.7525 57.369 34.5861 57.7022 34.253 58.0351L29.2571 63.0309C28.7575 63.1974 28.4246 63.3639 27.925 63.3639ZM7.9417 42.548L27.7586 59.3674L31.2557 55.8703V48.3766H27.925C26.9259 48.3766 26.2598 47.7105 26.2598 46.7113V42.5482L9.44045 28.7261C8.44129 31.7236 7.9417 34.7211 7.9417 37.8851V42.548Z" fill="black"/>
<path d="M6.2763 85.0125C6.10983 85.0125 5.77671 85.0125 5.61025 84.846C4.9442 84.6796 4.61108 84.0133 4.61108 83.3473V43.3806C4.61108 42.7146 4.9442 42.215 5.61025 41.8819C6.2763 41.5488 6.94254 41.7154 7.44212 42.0483L29.0907 60.3665C29.4238 60.6996 29.5903 61.0325 29.7567 61.5321C29.7567 62.0317 29.5903 62.5313 29.2571 62.6977L7.60858 84.3463C7.109 84.8459 6.77588 85.0125 6.2763 85.0125ZM7.9417 47.0442V79.3506L25.4271 61.8652L7.9417 47.0442Z" fill="black"/>
<path d="M12.9375 100H6.2763C5.27713 100 4.61108 99.334 4.61108 98.3348V83.3473C4.61108 82.8477 4.77755 82.5146 5.11067 82.1817L31.755 55.5373C32.2546 55.0377 32.9207 54.8713 33.5869 55.2042C34.2532 55.5371 34.5861 56.0369 34.5861 56.703V75.0211C34.5861 75.3542 34.4196 75.8538 34.253 76.1867L14.2696 99.5007C13.9367 99.8334 13.4371 100 12.9375 100ZM7.9417 96.6694H12.1048L31.2555 74.3546V60.6994L7.9417 84.0134V96.6694Z" fill="black"/>
<path d="M27.925 43.3805C27.5919 43.3805 27.2589 43.214 26.9258 43.0474L7.60853 27.3938C7.10895 26.8942 6.77583 26.2282 7.10895 25.3955C8.27458 22.5645 9.77333 19.9001 11.7717 17.5686C12.9375 16.2365 14.2696 14.7378 16.1014 13.239L16.2679 13.0726L18.7658 11.5738C19.2654 11.2407 19.9315 11.2407 20.431 11.5738C20.9306 11.7403 21.2637 12.2399 21.2637 12.7394L34.2529 28.8926C34.4194 29.2257 34.586 29.5586 34.586 29.8917V38.2182C34.586 39.2174 33.92 39.8834 32.9208 39.8834H29.5902V41.5486C29.5902 42.2147 29.2571 42.7143 28.591 43.0474C28.4246 43.3805 28.0914 43.3805 27.925 43.3805ZM10.606 25.5621L26.2596 38.2182C26.2596 37.3855 27.0923 36.7194 27.9248 36.7194H31.2554V30.7244L18.9323 15.2374L18.0996 15.9034C16.4344 17.2357 15.2685 18.4013 14.2694 19.7336C12.9375 21.3988 11.6052 23.3972 10.606 25.5621Z" fill="black"/>
<path d="M32.7542 31.7236C32.2546 31.7236 31.755 31.5571 31.4219 31.0575L18.0996 14.0717C17.7665 13.7386 17.6 13.239 17.7665 12.9061C17.7665 12.4065 18.0996 11.9069 18.4325 11.7404L36.9171 0.416466C37.4167 0.0833458 38.0827 0.0833458 38.5823 0.416466C39.2484 0.582929 39.5815 1.08251 39.5815 1.74875V25.0627C39.5815 26.0619 38.9154 26.7279 37.9163 26.7279H34.586L34.4196 30.0585C34.4196 30.7246 33.92 31.3908 33.2539 31.5573C33.0873 31.7236 32.9208 31.7236 32.7542 31.7236ZM21.7633 13.5721L31.089 25.3956V24.8961C31.089 24.0633 31.9217 23.2308 32.7542 23.2308H36.0848V4.74606L21.7633 13.5721Z" fill="black"/>
</g>
<defs>
<filter id="filter0_d_409_845" x="0.611084" y="0" width="74.7776" height="108" filterUnits="userSpaceOnUse" color-interpolation-filters="sRGB">
<feFlood flood-opacity="0" result="BackgroundImageFix"/>
<feColorMatrix in="SourceAlpha" type="matrix" values="0 0 0 0 0 0 0 0 0 0 0 0 0 0 0 0 0 0 127 0" result="hardAlpha"/>
<feOffset dy="4"/>
<feGaussianBlur stdDeviation="2"/>
<feComposite in2="hardAlpha" operator="out"/>
<feColorMatrix type="matrix" values="0 0 0 0 0 0 0 0 0 0 0 0 0 0 0 0 0 0 0.25 0"/>
<feBlend mode="normal" in2="BackgroundImageFix" result="effect1_dropShadow_409_845"/>
<feBlend mode="normal" in="SourceGraphic" in2="effect1_dropShadow_409_845" result="shape"/>
</filter>
</defs>
</svg>
